<?xml version="1.0" encoding="utf-8"?>
<!-- Generator: Adobe Illustrator 23.0.5, SVG Export Plug-In . SVG Version: 6.00 Build 0)  -->
<svg version="1.1" id="Layer_1" xmlns="http://www.w3.org/2000/svg" xmlns:xlink="http://www.w3.org/1999/xlink" x="0px" y="0px"
	 viewBox="0 0 412.68 129.01" style="enable-background:new 0 0 412.68 129.01;" xml:space="preserve">
<g>
	<path d="M386.32,15.01c0.26,0.16,0.51,0.36,0.79,0.48c4.16,1.75,5.83,5.12,4.68,9.49c-0.12,0.46-0.26,0.92-0.42,1.48
		c4.79,2.75,7.78,6.77,8.25,12.39c0.47,5.59-1.78,10.01-6.11,13.61c0.38,0.7,0.75,1.43,1.17,2.14c2.05,3.53,3.15,7.4,3.13,11.42
		c-0.03,5.22-0.5,10.44-0.78,15.66c-0.05,1-0.19,1.99-0.22,2.99c-0.02,0.69,0.17,1.27,0.91,1.65c1.34,0.69,2.04,1.99,2.26,3.37
		c0.32,1.95-2.5,4.21-4.5,3.73c-0.72-0.18-1.41-0.5-2.25-0.8c0,0.54,0,0.97,0,1.4c0.04,5.4,0.08,10.8,0.12,16.19
		c0.01,1.36-0.3,1.74-1.65,1.75c-4.76,0.03-9.52,0.05-14.27,0.03c-1.97-0.01-2.24-0.36-2.15-2.37c0.21-4.83,0.54-9.66,0.62-14.49
		c0.16-8.91,0.21-17.82,0.23-26.73c0-3.27-0.24-6.54-0.63-9.83c-0.23,1.9-0.64,3.81-0.65,5.71c-0.02,4.39,0.17,8.77,0.26,13.16
		c0.01,0.52-0.1,1.05-0.15,1.58c-0.15,0.03-0.3,0.05-0.44,0.08c-0.2-0.54-0.52-1.06-0.59-1.62c-0.59-4.85-0.75-9.73-0.23-14.59
		c0.35-3.25,0.95-6.47,1.49-9.7c0.17-1-0.28-1.65-0.91-2.32c-3.94-4.21-5.53-9.11-4.05-14.78c0.99-3.81,3.37-6.67,6.64-8.78
		c0.69-0.45,0.99-0.86,0.82-1.72c-0.21-1.13-0.33-2.3-0.33-3.45c0.02-3.08,1.52-5.21,4.33-6.44c0.5-0.22,1-0.46,1.5-0.69
		C384.24,15.01,385.28,15.01,386.32,15.01z M392.86,87.19c1.73-0.8,2.78-1.51,2.85-3.35c0.15-3.75,0.62-7.48,0.81-11.23
		c0.18-3.46,0.63-6.93-0.15-10.39c-0.51-2.24-1.15-4.42-2.38-6.37c-0.15,0.01-0.29,0.03-0.44,0.04
		C393.33,66.25,393.1,76.61,392.86,87.19z"/>
	<path d="M67.6,82.79c-0.04-14.78,9.15-27.27,21.73-30.7c14.11-3.85,28.84,2.15,35.96,14.68c2.18,3.84,3.15,7.93,2.92,12.4
		c-0.27,5.09-0.69,10.14-2.35,14.98c-3.54,10.34-11,16.44-21.44,18.7c-10.2,2.21-19.45-0.19-27.22-7.34
		c-4.94-4.54-7.7-10.34-8.88-16.88C67.9,86.32,67.74,83.97,67.6,82.79z M112.02,82.08c0.06-3.14-0.8-6.01-2.45-8.64
		c-4.51-7.2-14.19-8.66-20.33-3.09c-6.18,5.61-6.84,13.69-3.29,20.33c3.57,6.69,12.71,8.97,18.96,4.77
		C109.62,92.3,111.89,87.73,112.02,82.08z"/>
	<path d="M262.7,113.45c-14.94-0.01-26.64-9.53-29.65-24.12c-1.96-9.5-0.65-18.43,5.21-26.29c5.61-7.52,13.33-11.54,22.72-12.1
		c15.02-0.9,28.53,9.06,31.34,25.55c1.41,8.24,0.35,16-4.21,23.11C282.17,108.85,273.67,113.45,262.7,113.45z M276.71,80.97
		c-0.26-1.06-0.55-3.27-1.36-5.26c-3.67-9.01-14.81-11.62-21.63-5.23c-5.9,5.52-6.65,13.44-3.21,20.06
		c3.55,6.84,12.86,9.17,19.2,4.8C274.31,92.18,276.52,87.67,276.71,80.97z"/>
	<path d="M22.51,112.05c-4.24,0-8.47,0.01-12.71,0c-1.77,0-2.08-0.32-2.04-2.14c0.18-7.19,0.46-14.38,0.53-21.57
		c0.06-6.34-0.1-12.69-0.2-19.04c-0.08-4.91-0.21-9.83-0.34-14.74c-0.03-1.08,0.26-1.78,1.49-1.83c10.11-0.37,20.21-0.75,30.28,0.57
		c13.01,1.7,20.23,10.97,22.46,21.09c2.51,11.39,0.11,21.57-7.97,30.19c-4.53,4.83-10.18,7.23-16.76,7.37
		c-4.91,0.11-9.83,0.02-14.75,0.02C22.51,112,22.51,112.03,22.51,112.05z M24.45,82.18c0,4.63-0.01,9.26,0,13.9
		c0,1.71,0.57,2.28,2.26,2.42c1.11,0.09,2.22,0.22,3.33,0.34c7.15,0.72,13.08-3.07,15.46-9.84c1.07-3.04,1.16-6.16,0.94-9.33
		c-0.43-6.21-4.58-11.6-10.45-13.42c-3.12-0.97-6.28-0.97-9.46-0.33c-1.68,0.34-2.08,0.77-2.08,2.48
		C24.45,72.99,24.45,77.59,24.45,82.18z"/>
	<path d="M349.58,111.92c-0.99,0.1-1.7,0.22-2.41,0.22c-4.44,0.02-8.88,0.01-13.32,0.01c-2.09,0-2.51-0.3-3.3-2.26
		c-1.98-4.93-3.96-9.85-5.95-14.78c-1.11-2.75-2.06-3.35-5-3.22c-0.8,0.04-1.6,0.12-2.39,0.1c-1.1-0.02-1.49,0.49-1.42,1.55
		c0.21,3.23,0.39,6.46,0.58,9.69c0.15,2.47,0.29,4.95,0.47,7.42c0.07,1.01-0.35,1.53-1.34,1.54c-4.96,0.02-9.92,0.04-14.88,0
		c-1.43-0.01-1.94-0.65-1.89-2.2c0.18-5.23,0.57-10.46,0.61-15.69c0.07-9.79-0.04-19.58-0.12-29.36c-0.03-3.32-0.21-6.63-0.28-9.95
		c-0.04-1.78,0.22-2.06,1.94-2.12c4.87-0.17,9.75-0.39,14.62-0.42c5.27-0.03,10.56-0.07,15.82,0.27
		c7.43,0.47,14.29,5.77,16.21,12.32c1.45,4.93,1.14,9.88-0.46,14.74c-0.98,2.97-3.22,5.01-5.51,6.97c-2.78,2.38-2.67,2.12-1.13,5.31
		c2.62,5.43,5.19,10.89,7.75,16.35C348.67,109.46,349.05,110.59,349.58,111.92z M315.55,73.19c-0.01,0-0.02,0-0.03,0
		c0,1.96,0.04,3.91-0.01,5.87c-0.03,1.06,0.43,1.59,1.44,1.64c2.35,0.11,4.71,0.3,7.05,0.25c4.57-0.11,7.05-2.44,7.44-6.77
		c0.42-4.65-1.84-7.92-6.42-8.69c-2.4-0.41-4.91-0.34-7.36-0.27c-1.75,0.05-2.1,0.58-2.11,2.35
		C315.54,69.43,315.55,71.31,315.55,73.19z"/>
	<path d="M161.95,113.49c-14.98,0.3-26.09-10.76-28.38-23.53c-1.44-8.04-0.93-15.91,2.96-23.21c4.09-7.68,10.14-13.24,18.94-14.86
		c8.8-1.62,17.21-0.48,24.59,5.08c1.11,0.84,2.08,1.86,3.09,2.83c0.86,0.83,0.97,1.86,0.41,2.86c-1.93,3.45-3.89,6.88-5.87,10.3
		c-0.52,0.89-1.29,0.88-2.04,0.31c-0.95-0.73-1.87-1.5-2.79-2.27c-2.99-2.47-6.33-4.04-10.29-3.94c-5.66,0.14-10.4,3.7-12.04,9.14
		c-1.37,4.55-1.16,9.11,0.66,13.5c2.75,6.62,9.94,9.4,17.05,6.75c2.55-0.95,4.7-2.52,6.76-4.25c1.36-1.14,1.76-1.1,2.74,0.36
		c1.86,2.75,3.69,5.51,5.5,8.29c0.99,1.52,0.93,2.04-0.22,3.42c-5.02,6.01-11.53,8.9-19.28,9.17c-0.32,0.01-0.64,0-0.96,0.01
		C162.51,113.45,162.23,113.47,161.95,113.49z"/>
	<path d="M184.92,67.18c0.18-1.46,0.31-2.71,0.49-3.96c0.42-2.93,0.85-5.85,1.3-8.77c0.28-1.82,0.76-2.09,2.57-1.99
		c5.58,0.32,11.17,0.85,16.75,0.79c6.62-0.06,13.25-0.59,19.86-1.02c3.14-0.2,3.3-0.18,3.41,2.88c0.12,3.27,0.23,6.55,0.34,9.82
		c0.06,1.64-0.29,1.97-1.95,1.84c-3.66-0.27-7.33-0.54-11-0.81c-0.23-0.02-0.46,0-0.77,0c-0.06,0.73-0.18,1.39-0.16,2.06
		c0.23,12.47,0.47,24.93,0.72,37.4c0.03,1.36,0.14,2.71,0.17,4.07c0.06,2.16-0.32,2.54-2.44,2.55c-3.44,0-6.88-0.01-10.32,0.01
		c-1.08,0-2.16,0.12-3.23,0.08c-1.67-0.07-2.11-0.56-2.07-2.23c0.22-8.23,0.54-16.45,0.66-24.68c0.09-5.95-0.1-11.91-0.14-17.86
		c-0.01-0.82-0.33-1.02-1.09-0.97c-3.19,0.22-6.38,0.4-9.57,0.6C187.39,67.05,186.31,67.1,184.92,67.18z"/>
</g>
</svg>
