<?xml version="1.0" encoding="utf-8"?>
<!-- Generator: Adobe Illustrator 23.0.5, SVG Export Plug-In . SVG Version: 6.00 Build 0)  -->
<svg version="1.1" id="Layer_1" xmlns="http://www.w3.org/2000/svg" xmlns:xlink="http://www.w3.org/1999/xlink" x="0px" y="0px"
	 viewBox="0 0 864 864" style="enable-background:new 0 0 864 864;" xml:space="preserve">
<style type="text/css">
	.st0{fill:#C32B31;}
	.st1{fill:#F1D1D2;}
	.st2{fill:#B3B3B3;}
	.st3{fill:#C33035;}
	.st4{fill:#060505;}
	.st5{fill:#C32C32;}
	.st6{fill:#060606;}
	.st7{fill:#C32D32;}
	.st8{fill:#C32D33;}
	.st9{fill:#080707;}
	.st10{fill:#0B0A0A;}
	.st11{fill:#C1272D;}
	.st12{fill:#040002;}
	.st13{fill:#040001;}
</style>
<g>
	<path class="st0" d="M11.76,576.48c1.69-2.45,4.24-3.07,7-3.46c4.78-0.68,9.53-1,14.29,0.08c0.62,0.14,1.26,0.29,1.82,0.56
		c2.44,1.17,3.08,4.16,1.04,5.94c-2.58,2.26-2.75,5.06-2.54,8.09c0.05,0.76,0.26,1.58,1.08,1.64c0.52,0.04,1.24-0.36,1.6-0.79
		c1.7-2.01,3.31-4.1,4.95-6.17c0.67-0.84,0.72-1.74,0.32-2.7c-0.12-0.3-0.26-0.59-0.36-0.89c-0.86-2.45-0.26-4.02,2.15-5.02
		c1.24-0.51,2.59-0.85,3.92-1.01c3.82-0.46,7.66-0.51,11.48-0.03c1.25,0.16,2.52,0.49,3.69,0.97c1.59,0.66,2.35,2.13,2.15,3.65
		c-0.23,1.73-1.27,2.91-3.06,3.22c-1.09,0.19-2.23,0.18-3.34,0.22c-1.5,0.06-2.83,0.56-3.92,1.57c-1.69,1.58-3.39,3.17-4.98,4.85
		c-1.89,1.99-1.93,3.52-0.28,5.75c0.76,1.03,1.6,2,2.43,2.97c3.74,4.38,7.49,8.74,11.23,13.12c1.68,1.96,3.49,3.73,5.93,4.75
		c1.75,0.73,2.53,2.11,2.45,3.99c-0.08,1.94-0.82,2.93-2.75,3.37c-1,0.23-2.05,0.34-3.08,0.35c-4.08,0.04-8.15-0.01-12.23,0.03
		c-1.83,0.02-3.14-0.73-4.29-2.15c-3.18-3.9-6.46-7.73-9.74-11.55c-0.56-0.65-1.28-1.22-2.03-1.64c-0.92-0.51-1.99-0.15-2.09,0.81
		c-0.2,1.88-0.21,3.8-0.02,5.68c0.06,0.65,0.92,1.24,1.47,1.81c0.5,0.51,1.16,0.88,1.6,1.43c1.34,1.67,1.1,3.69-0.77,4.7
		c-1.37,0.73-2.98,1.06-4.52,1.41c-1.24,0.29-2.53,0.35-3.8,0.51c-2.4,0-4.8,0.01-7.19,0.01c-1.18-0.16-2.37-0.3-3.55-0.48
		c-0.86-0.13-1.74-0.23-2.57-0.47c-1.38-0.4-2.44-1.2-2.66-2.74c-0.21-1.47,0.28-2.69,1.53-3.51c1.59-1.05,2.35-2.56,2.54-4.39
		c0.24-2.21,0.47-4.43,0.61-6.66c0.41-6.61,0.22-13.21-0.71-19.77c-0.12-0.84-0.35-1.84-0.89-2.4c-1.17-1.21-2.58-2.19-3.89-3.26
		C11.76,578.08,11.76,577.28,11.76,576.48z"/>
	<path class="st1" d="M773.46,622.55c0.02,0.16,0.04,0.33,0.06,0.49c-2.56,0-5.12,0-7.68,0c0.02-0.17,0.05-0.33,0.07-0.5
		C768.43,622.54,770.94,622.55,773.46,622.55z"/>
	<path class="st1" d="M21.36,623.04c0-0.16,0-0.32,0-0.48c2.4,0,4.8-0.01,7.19-0.01c0,0.16,0,0.33,0.01,0.49
		C26.16,623.04,23.76,623.04,21.36,623.04z"/>
	<path class="st1" d="M489.84,622.56c0,0.16,0,0.32,0,0.48c-2.08,0-4.16,0-6.24,0c0-0.17,0.01-0.33,0.01-0.5
		C485.69,622.55,487.76,622.55,489.84,622.56z"/>
	<path class="st1" d="M168.24,622.56c0,0.16,0,0.32,0,0.48c-2.08,0-4.16,0-6.24,0c0-0.16,0-0.33,0-0.49
		C164.08,622.55,166.16,622.56,168.24,622.56z"/>
	<path class="st1" d="M552.24,622.57c0,0.16,0,0.31,0,0.47c-1.92,0-3.84,0-5.76,0c0-0.17,0-0.33,0.01-0.5
		C548.41,622.55,550.32,622.56,552.24,622.57z"/>
	<path class="st1" d="M446.16,623.04c0-0.16,0-0.32,0-0.49c1.91-0.01,3.83-0.02,5.74-0.04c0.01,0.17,0.01,0.35,0.02,0.52
		C450,623.04,448.08,623.04,446.16,623.04z"/>
	<path class="st1" d="M571.92,623.04c-0.01-0.15-0.01-0.3-0.01-0.46c1.91-0.03,3.83-0.06,5.74-0.09c0.01,0.18,0.02,0.37,0.03,0.55
		C575.76,623.04,573.84,623.04,571.92,623.04z"/>
	<path class="st2" d="M743.28,623.04c-0.02-0.14-0.03-0.29-0.02-0.43c1.91-0.04,3.82-0.07,5.73-0.11c0.01,0.18,0.03,0.36,0.04,0.54
		C747.12,623.04,745.2,623.04,743.28,623.04z"/>
	<path class="st1" d="M700.53,622.61c0.03,0.14,0.04,0.29,0.03,0.43c-1.92,0-3.84,0-5.76,0c0.02-0.17,0.05-0.33,0.07-0.5
		C696.75,622.56,698.64,622.59,700.53,622.61z"/>
	<path class="st1" d="M275.28,622.57c0,0.16,0,0.32,0,0.47c-1.76,0-3.52,0-5.28,0c-0.01-0.16-0.01-0.31,0-0.47
		C271.76,622.57,273.52,622.57,275.28,622.57z"/>
	<path class="st1" d="M661.2,623.04c0.02-0.17,0.04-0.33,0.07-0.5c1.72,0.01,3.44,0.01,5.16,0.02c0.02,0.16,0.04,0.32,0.06,0.48
		C664.72,623.04,662.96,623.04,661.2,623.04z"/>
	<path class="st2" d="M718.8,623.04c0-0.16,0-0.32,0.01-0.48c1.76,0.01,3.52,0.02,5.28,0.02c-0.01,0.15-0.01,0.31-0.01,0.46
		C722.32,623.04,720.56,623.04,718.8,623.04z"/>
	<path class="st1" d="M87.12,623.04c0-0.17,0-0.33,0.01-0.5c1.58-0.02,3.17-0.03,4.75-0.05c0.02,0.18,0.03,0.36,0.05,0.54
		C90.32,623.04,88.72,623.04,87.12,623.04z"/>
	<path class="st1" d="M800.88,623.04c0.01-0.16,0.03-0.31,0.05-0.47c1.56-0.01,3.13-0.01,4.69-0.02c0.02,0.16,0.04,0.32,0.06,0.49
		C804.08,623.04,802.48,623.04,800.88,623.04z"/>
	<path class="st3" d="M853.2,613.92c-0.14-0.13-0.28-0.25-0.42-0.38c0.02-1.25,0.05-2.49,0.07-3.74c0.08-0.14,0.19-0.2,0.35-0.2
		C853.2,611.04,853.2,612.48,853.2,613.92z"/>
	<path class="st1" d="M403.44,623.04c-0.01-0.15-0.01-0.3-0.01-0.45c1.43-0.02,2.87-0.04,4.3-0.06c0.01,0.17,0.02,0.34,0.03,0.51
		C406.32,623.04,404.88,623.04,403.44,623.04z"/>
	<path class="st1" d="M618.48,623.04c0.02-0.16,0.04-0.33,0.06-0.49c1.41,0.02,2.81,0.03,4.22,0.05c0.03,0.15,0.04,0.29,0.04,0.44
		C621.36,623.04,619.92,623.04,618.48,623.04z"/>
	<path class="st2" d="M842.15,622.54c0,0.17,0.01,0.33,0.01,0.5c-1.28,0-2.56,0-3.84,0c0.01-0.17,0.01-0.34,0.02-0.51
		C839.61,622.54,840.88,622.54,842.15,622.54z"/>
	<path class="st2" d="M853.2,596.64l-0.22-0.01l-0.22,0.03c0.01-0.82,0.02-1.63,0.03-2.45c0.14-0.01,0.27,0,0.4,0.03
		C853.2,595.04,853.2,595.84,853.2,596.64z"/>
	<path class="st2" d="M430.66,537.63c-11.26,0.26-21.65-1.52-31.74-5.15c-9.26-3.33-17.65-8.17-25.31-14.34
		c-8.61-6.93-15.85-15.05-21.65-24.46c-5.29-8.58-8.84-17.82-10.99-27.67c-2-9.14-2.27-18.39-1.72-27.64
		c0.29-4.9,1.29-9.8,2.44-14.59c1.6-6.69,4.09-13.11,7.33-19.2c3.65-6.86,7.96-13.26,13.18-19.07c11.28-12.54,25-21.24,41.02-26.35
		c5.86-1.87,11.86-3.17,18.02-3.52c4.14-0.24,8.29-0.5,12.44-0.42c9.81,0.2,19.31,2.17,28.49,5.6c9.13,3.41,17.5,8.21,25.09,14.29
		c8.3,6.65,15.25,14.51,20.81,23.62c3.77,6.17,6.8,12.66,8.95,19.55c1.75,5.64,2.98,11.4,3.6,17.29c0.49,4.68,0.91,9.36,0.89,14.08
		c-0.05,10.58-2.12,20.75-6.1,30.54c-3.65,8.95-8.62,17.09-14.87,24.47c-7.14,8.42-15.29,15.67-24.86,21.21
		c-7.85,4.54-16.2,7.92-25.11,9.79C443.82,537.07,437.03,537.9,430.66,537.63z M430.32,375.22c-38.97-0.35-70.92,31.28-71.39,70.35
		c-0.48,39.52,31.23,71.98,70.87,72.19c40.6,0.22,71.25-33,71.71-70.35C502,407.88,469.65,374.84,430.32,375.22z"/>
	<path class="st2" d="M412.55,283.6c0.35,12.67-2.14,24.41-6.86,35.64c-3.64,8.65-8.34,16.73-14.72,23.72
		c-2.1,2.3-4.17,4.64-6.36,6.85c-5.15,5.2-11.06,9.41-17.34,13.13c-7.55,4.47-15.62,7.69-24.14,9.67
		c-5.04,1.17-10.13,2.16-15.34,2.34c-1.75,0.06-3.5,0.35-5.25,0.35c-10.36-0.03-20.48-1.52-30.33-4.87
		c-11.34-3.85-21.5-9.7-30.58-17.5c-8.1-6.95-14.65-15.1-19.9-24.38c-5.33-9.42-8.79-19.48-10.5-30.13
		c-1.09-6.79-1.55-13.67-1-20.54c0.86-10.72,3.26-21.08,7.66-30.97c3.71-8.32,8.56-15.86,14.49-22.75
		c11.24-13.05,25.16-22.03,41.5-27.3c5.55-1.79,11.23-2.95,17.05-3.57c2.26-0.24,4.5-0.31,6.76-0.47
		c10.08-0.7,19.87,0.79,29.51,3.53c8.59,2.44,16.64,6.12,24.06,11.06c8.09,5.39,15.3,11.76,21.37,19.43
		c4.64,5.86,8.58,12.12,11.75,18.88c3.14,6.68,5.31,13.68,6.7,20.92C412.21,272.39,412.84,278.17,412.55,283.6z M250.22,283.74
		c-0.54,38.58,31.52,71.27,70.79,71.46c37.82,0.19,71.71-29.84,71.73-71.29c0.02-40.77-33.11-71.25-71.2-71.29
		C280.78,212.59,249.79,246.39,250.22,283.74z"/>
	<path class="st2" d="M620.88,283.72c0.33,12.65-2.18,24.46-6.97,35.75c-3.73,8.79-8.69,16.86-15.07,24.07
		c-5.55,6.27-11.62,11.86-18.58,16.49c-9.69,6.45-20.22,10.92-31.62,13.21c-5.94,1.19-11.94,2.09-18.03,2.06
		c-10.28-0.06-20.31-1.59-30.09-4.87c-10.74-3.6-20.42-9.06-29.13-16.24c-8.72-7.19-15.8-15.76-21.35-25.64
		c-5.3-9.43-8.78-19.49-10.49-30.13c-1.09-6.79-1.55-13.67-1-20.54c0.85-10.64,3.22-20.93,7.57-30.75
		c3.86-8.7,8.96-16.53,15.24-23.67c9.58-10.89,21.12-18.93,34.55-24.32c5.57-2.24,11.31-3.92,17.2-5.03c1.8-0.34,3.64-0.4,5.45-0.7
		c2.56-0.42,5.14-0.44,7.7-0.66c4.75-0.4,9.39,0.19,14.06,0.57c5.59,0.46,11,1.79,16.36,3.39c6.92,2.07,13.5,4.94,19.67,8.67
		c7.42,4.49,14.19,9.82,20.09,16.19c5.34,5.77,9.93,12.09,13.7,19c3.85,7.06,6.65,14.51,8.49,22.33
		C620.28,269.86,621.16,276.89,620.88,283.72z M458.54,283.88c-0.46,38.44,31.48,71.07,70.69,71.32
		c37.81,0.24,71.76-29.72,71.83-71.19c0.07-40.91-33.13-71.31-71.1-71.39C489.08,212.53,458.03,246.46,458.54,283.88z"/>
	<path class="st4" d="M724.09,622.58c-1.76-0.01-3.52-0.02-5.28-0.02c-1.11-0.16-2.22-0.29-3.32-0.48
		c-0.78-0.14-1.59-0.27-2.32-0.56c-2.12-0.85-2.65-3.13-1.19-4.88c0.26-0.31,0.55-0.58,0.84-0.86c0.94-0.86,1.39-1.94,1.42-3.19
		c0.07-3.75,0.16-7.51,0.13-11.26c-0.01-0.92-0.33-1.89-0.7-2.76c-0.61-1.47-1.65-2.07-2.97-1.91c-1.37,0.16-2.16,1.01-2.45,2.28
		c-0.25,1.09-0.45,2.2-0.48,3.31c-0.09,3.12-0.16,6.24-0.05,9.35c0.05,1.32,0.54,2.63,0.87,3.93c0.14,0.54,0.46,1.02,0.61,1.56
		c0.57,2.05,0.06,3.23-1.92,4.01c-1.18,0.46-2.44,0.71-3.69,0.99c-1.01,0.23-2.04,0.36-3.06,0.53c-1.89-0.02-3.77-0.05-5.66-0.07
		c-0.86-0.16-1.73-0.28-2.58-0.49c-0.85-0.21-1.72-0.41-2.49-0.79c-2.15-1.05-2.48-2.71-0.8-4.34c2.04-1.98,2.82-4.4,2.87-7.13
		c0.06-3.28,0.01-6.55,0.07-9.83c0.03-1.71-0.5-3.13-1.76-4.28c-0.24-0.22-0.48-0.43-0.68-0.67c-1.18-1.44-1.11-2.76,0.32-3.97
		c0.6-0.51,1.31-0.97,2.05-1.19c3.74-1.13,7.5-2.17,11.25-3.23c0.3-0.09,0.63-0.08,0.95-0.1c3.09-0.26,3.63,0.2,3.7,3.35
		c0.02,1,0.13,1.9,1.18,2.6c0.81-0.72,1.64-1.46,2.47-2.19c3.22-2.84,6.93-4.14,11.24-3.77c2.88,0.25,5.23,1.31,6.83,3.81
		c0.38,0.59,0.86,1.13,1.42,1.85c1.11-0.9,2.12-1.76,3.17-2.57c3.94-3.04,8.32-3.96,13.09-2.54c3.54,1.05,5.81,3.43,6.23,7.12
		c0.33,2.92,0.26,5.89,0.27,8.84c0.01,2.63-0.11,5.27-0.17,7.9c-0.04,1.9,0.45,3.57,1.71,5.08c1.52,1.82,1.11,3.84-0.95,5
		c-0.89,0.5-1.92,0.76-2.91,1.04c-0.76,0.22-1.56,0.31-2.35,0.46c-1.91,0.04-3.82,0.07-5.73,0.11c-1.41-0.27-2.82-0.5-4.22-0.83
		c-0.69-0.16-1.37-0.44-2-0.78c-2.25-1.21-2.61-2.49-1.23-4.63c1.12-1.74,1.65-3.62,1.66-5.65c0.02-2.95,0.03-5.9-0.05-8.85
		c-0.03-1.02-0.22-2.07-0.54-3.04c-0.49-1.53-1.64-2.26-3.05-2.18c-1.46,0.09-2.72,1.14-3.03,2.61c-0.16,0.78-0.3,1.58-0.29,2.37
		c0.06,3.74,0.08,7.49,0.33,11.22c0.08,1.12,0.77,2.24,1.3,3.29c1.29,2.56,0.76,4.35-1.98,5.26
		C728.22,622.03,726.12,622.2,724.09,622.58z"/>
	<path class="st5" d="M275.28,622.57c-1.76,0-3.52,0-5.29,0.01c-0.13-0.08-0.28-0.12-0.43-0.13c-0.49-0.1-0.98-0.2-1.47-0.3
		c-10.83-2.15-18.36-8.15-21.14-19.03c-2.44-9.52,0.37-17.74,7.76-24.18c7.24-6.3,15.72-7.81,24.91-5.61
		c2.76,0.66,5.41,1.28,8.21,0.21c1.21-0.46,2.41-0.02,3.32,0.85c3.42,3.27,5.01,7.2,3.88,11.92c-0.93,3.91-5.07,5.53-8.49,3.4
		c-0.87-0.54-1.59-1.32-2.33-2.04c-1.2-1.17-2.32-2.43-3.56-3.56c-2.11-1.91-4.67-2.82-7.48-2.64c-3.87,0.25-6.71,2.25-7.94,5.94
		c-2.63,7.91-1.17,15.14,4.21,21.5c1.84,2.17,4.32,3.27,7.2,3.25c2.59-0.02,4.31-2.06,3.97-4.6c-0.2-1.46-0.84-2.11-2.31-2.29
		c-0.55-0.07-1.12-0.01-1.68-0.08c-1.68-0.21-2.66-1.06-3.07-2.6c-0.38-1.45,0.02-2.98,1.43-3.75c1.59-0.86,3.32-1.66,5.08-1.96
		c5.31-0.92,10.66-1.09,15.94,0.29c1.29,0.34,2.56,0.93,3.68,1.65c1.24,0.8,1.64,2.14,1.34,3.6c-0.28,1.36-1.05,2.4-2.47,2.62
		c-1.86,0.28-2.69,1.38-3.2,3.09c-1.93,6.46-6.29,10.62-12.6,12.76c-1.65,0.56-3.4,0.86-5.1,1.27c-0.65,0.1-1.3,0.2-1.95,0.3
		C275.57,622.45,275.42,622.49,275.28,622.57z"/>
	<path class="st6" d="M622.76,622.6c-1.41-0.02-2.81-0.03-4.22-0.05c-2.26-0.47-4.57-0.79-6.78-1.44
		c-11.39-3.36-18.84-14.33-17.72-26.16c0.56-5.89,3.29-10.8,7.58-14.81c6.9-6.44,15-8.86,24.28-7.01c1.55,0.31,3.05,0.94,4.5,1.58
		c1.74,0.77,3.49,1.18,5.35,0.76c1.8-0.41,3.07,0.29,4.16,1.67c2.88,3.67,4,7.75,3.02,12.36c-0.78,3.69-4.42,5.84-8.05,4.74
		c-1.3-0.4-2.16-1.31-2.84-2.43c-0.87-1.43-1.67-2.92-2.64-4.27c-2.34-3.27-5.58-4.87-9.61-4.98c-3.59-0.1-6.54,1.77-7.4,5.81
		c-1.37,6.49,0.02,12.35,4.52,17.37c2.56,2.86,5.77,4.26,9.55,4.21c3.74-0.04,7.28-0.9,10.27-3.35c0.37-0.3,0.76-0.6,1.18-0.81
		c1.3-0.64,2.52-0.3,3.33,0.91c0.71,1.05,0.82,2.24,0.65,3.45c-0.36,2.61-1.41,4.92-3.3,6.76c-0.66,0.64-1.53,1.17-2.41,1.47
		C631.76,619.91,627.44,621.84,622.76,622.6z"/>
	<path class="st0" d="M577.65,622.49c-1.91,0.03-3.83,0.06-5.74,0.09c-1.1-0.17-2.23-0.27-3.31-0.54c-1.15-0.29-2.33-0.62-3.35-1.19
		c-1.37-0.78-1.71-2.03-0.78-3.24c2.56-3.33,2.25-7.22,2.4-11.03c0.05-1.43-0.07-2.89-0.31-4.3c-0.21-1.24-0.54-2.51-1.1-3.63
		c-0.87-1.73-2.61-2.38-4.47-1.95c-1.51,0.35-2.5,1.2-2.53,2.78c-0.1,4.63-0.13,9.26,0.04,13.88c0.04,1.08,0.89,2.18,1.52,3.18
		c1.34,2.12,1.03,3.56-1.27,4.61c-1.07,0.49-2.26,0.74-3.42,0.99c-1.01,0.22-2.05,0.3-3.08,0.43c-1.92-0.01-3.84-0.02-5.76-0.03
		c-1.41-0.28-2.84-0.47-4.21-0.88c-1.05-0.31-2.12-0.76-3.01-1.4c-1.44-1.03-1.54-2.78-0.13-3.86c2.16-1.65,2.99-3.83,3.22-6.41
		c0.68-7.82,0.73-15.65,0.22-23.48c-0.11-1.62-0.81-2.79-2.27-3.69c-2.68-1.66-2.6-3.99,0.14-5.52c1.03-0.58,2.17-1.04,3.32-1.33
		c3.25-0.83,6.52-1.56,9.79-2.31c0.47-0.11,0.95-0.13,1.43-0.18c2.99-0.32,3.54,0.13,3.5,3.21c-0.05,3.44-0.24,6.87-0.3,10.31
		c-0.02,1.43-0.01,2.88,0.26,4.27c0.23,1.21,1.22,1.43,2.16,0.63c0.48-0.41,0.87-0.94,1.26-1.44c4.33-5.6,12.32-4.86,16.4-1.65
		c2.41,1.89,3.59,4.46,3.7,7.49c0.19,5.11,0.38,10.23,0.47,15.34c0.03,1.79,0.49,3.27,1.79,4.52c2.78,2.68,1.54,4.46-1.39,5.36
		C581.16,622.04,579.38,622.18,577.65,622.49z"/>
	<path class="st0" d="M407.73,622.53c-1.43,0.02-2.87,0.04-4.3,0.06c-0.12-0.09-0.26-0.15-0.41-0.17c-0.33-0.1-0.66-0.2-0.99-0.31
		c-5.61-2.11-9.74-5.74-11.65-11.54c-3.09-9.37,1.01-18.83,9.82-22.83c3.83-1.74,7.7-1.87,11.63-0.37c0.89,0.34,1.78,0.68,2.65,1.01
		c1.77-2.66,1.29-4.43-1.49-5.72c-0.43-0.2-0.9-0.36-1.29-0.63c-1.47-1-1.68-2.71-0.29-3.82c1.1-0.87,2.4-1.64,3.74-2.03
		c3.29-0.96,6.64-1.72,9.99-2.47c1-0.22,2.07-0.24,3.1-0.18c1.58,0.08,2.3,0.79,2.5,2.36c0.09,0.71,0.06,1.44,0.06,2.15
		c0,10.23,0.04,20.46-0.03,30.69c-0.01,2.15,0.43,3.92,2.22,5.25c0.49,0.36,0.85,0.95,1.17,1.49c0.61,1.01,0.5,2.06-0.33,2.86
		c-0.68,0.65-1.49,1.21-2.33,1.62c-2.93,1.43-10.45,2.62-14.35,2.06c-0.21-0.61-0.43-1.35-0.7-2.08c-0.52-1.42-0.94-1.51-2.31-0.73
		c-1.79,1.03-3.62,1.99-5.43,2.98C408.4,622.3,408.07,622.41,407.73,622.53C407.73,622.53,407.73,622.53,407.73,622.53z
		 M406.24,604.77c0.04,0.8,0.03,1.6,0.13,2.38c0.26,1.99,0.75,3.93,2.1,5.5c1.7,1.98,4.2,1.79,5.6-0.42
		c0.29-0.47,0.58-0.98,0.7-1.51c1.03-4.63,1.36-9.28,0.12-13.93c-0.72-2.71-3.93-3.51-5.82-1.44c-0.63,0.69-1.11,1.56-1.48,2.43
		C406.65,600.01,406.21,602.35,406.24,604.77z"/>
	<path class="st7" d="M213.95,622.56c-1.86-0.14-3.86-0.21-5.84-0.48c-0.92-0.12-1.88-0.49-2.64-1.01c-1.5-1.01-1.78-2.86-0.54-4.15
		c1.25-1.3,1.85-2.79,1.98-4.5c0.32-3.98,0.68-7.98-0.22-11.94c-0.14-0.62-0.3-1.25-0.56-1.83c-0.66-1.49-1.86-2.11-3.46-2.05
		c-1.74,0.07-2.73,0.68-3.23,2.32c-0.32,1.05-0.5,2.19-0.52,3.29c-0.08,3.12-0.04,6.24-0.07,9.36c-0.01,1.4,0.35,2.68,1.1,3.86
		c0.22,0.34,0.45,0.66,0.64,1.01c1.14,2.06,0.62,3.71-1.55,4.67c-0.87,0.39-1.8,0.72-2.74,0.85c-4.13,0.6-8.29,0.78-12.42,0.06
		c-1.07-0.19-2.18-0.6-3.09-1.2c-1.8-1.17-2.05-3.02-0.46-4.42c1.81-1.6,2.25-3.53,2.27-5.79c0.03-3.04,0.17-6.07,0.37-9.11
		c0.14-2.17-0.48-3.93-2.28-5.22c-0.19-0.14-0.39-0.28-0.57-0.44c-1.73-1.6-1.64-3.17,0.31-4.55c0.52-0.37,1.09-0.7,1.69-0.9
		c3.94-1.28,7.9-2.52,11.85-3.77c0.23-0.07,0.47-0.08,0.71-0.11c2.86-0.37,3.58,0.19,3.91,3.03c0.1,0.85-0.05,1.88,1.02,2.21
		c1.07,0.33,1.61-0.5,2.08-1.25c3.53-5.58,13.91-5.46,18.15-0.23c1.15,1.41,1.79,3.03,2.06,4.79c0.25,1.66,0.41,3.33,0.49,5.01
		c0.18,3.59,0.33,7.19,0.41,10.78c0.04,1.83,0.46,3.47,1.82,4.78c0.34,0.33,0.63,0.73,0.86,1.15c0.93,1.68,0.45,3.43-1.31,4.21
		c-1.15,0.51-2.41,0.88-3.66,1.04C218.41,622.35,216.25,622.41,213.95,622.56z"/>
	<path class="st6" d="M666.42,622.56c-1.72-0.01-3.44-0.01-5.16-0.02c-1.24-0.29-2.5-0.51-3.72-0.87
		c-6.22-1.85-10.53-5.69-11.84-12.21c-1.32-6.54,0.12-12.46,5.25-17c6.76-5.99,14.64-7.57,23.23-4.91
		c8.92,2.76,14.22,12.75,11.55,21.37c-0.65,2.1-1.71,3.96-3.18,5.57c-3.79,4.15-8.45,6.73-14.01,7.65
		C667.83,622.26,667.13,622.42,666.42,622.56z M670.21,609.48c-0.07-3.79-0.77-7.46-2.15-10.98c-0.32-0.81-0.72-1.62-1.26-2.29
		c-1.55-1.91-4.31-1.56-5.22,0.74c-0.39,0.99-0.47,2.19-0.39,3.27c0.27,3.68,1.19,7.24,2.51,10.68c0.28,0.73,0.77,1.39,1.26,2.02
		c0.83,1.09,2,1.26,3.24,0.92c1.22-0.34,1.82-1.26,2-2.45C670.29,610.77,670.21,610.12,670.21,609.48z"/>
	<path class="st5" d="M346.24,605.51c0.02-6.21,2.55-11.11,7.63-14.69c6.44-4.53,13.44-5.68,20.96-3.38
		c8.56,2.61,13.81,11.23,12.25,20.01c-0.41,2.33-1.44,4.39-2.91,6.24c-6.83,8.58-19.27,10.55-27.15,7.51
		C350.13,618.53,346.21,612.89,346.24,605.51z M371.24,609.61c-0.18-3.93-0.82-7.62-2.22-11.14c-0.32-0.81-0.72-1.63-1.27-2.29
		c-1.68-2.01-4.46-1.52-5.32,0.95c-0.3,0.87-0.37,1.89-0.31,2.82c0.27,3.85,1.21,7.56,2.63,11.15c0.29,0.72,0.75,1.44,1.31,1.98
		c1.77,1.73,4.48,0.92,5.03-1.48C371.25,610.91,371.2,610.17,371.24,609.61z"/>
	<path class="st0" d="M321.86,622.56c-3.67-0.07-6.97-0.54-10.03-2.12c-6.24-3.23-9.15-8.46-9.03-15.4
		c0.1-6.12,2.84-10.9,7.84-14.34c6.53-4.5,13.64-5.63,21.21-3.13c8.51,2.8,13.66,12,11.59,20.57c-0.66,2.71-2.05,5.02-3.99,6.99
		C334.54,620.13,328.51,622.43,321.86,622.56z M327.93,609.74c-0.37-4.12-0.94-7.9-2.42-11.48c-0.33-0.8-0.77-1.61-1.36-2.23
		c-1.71-1.84-4.35-1.28-5.15,1.1c-0.27,0.81-0.43,1.74-0.36,2.59c0.34,3.92,1.16,7.74,2.69,11.38c0.33,0.79,0.83,1.58,1.46,2.15
		c1.66,1.49,4.17,0.72,4.78-1.41C327.8,611.06,327.85,610.25,327.93,609.74z"/>
	<path class="st8" d="M91.87,622.5c-1.58,0.02-3.17,0.03-4.75,0.05c-1.01-0.22-2.04-0.4-3.04-0.67
		c-9.58-2.54-15.25-12.62-12.4-22.14c4.07-13.61,20.78-16.85,29.87-9.7c2.96,2.33,4.82,5.32,5.48,9.01
		c0.19,1.06,0.12,2.24-0.12,3.31c-0.57,2.55-1.6,3.32-4.2,3.33c-4.64,0.02-9.28-0.01-13.92,0.01c-2.85,0.01-3.28,0.79-1.86,3.27
		c1.65,2.9,5.25,4.62,8.62,3.83c1.84-0.43,3.6-1.26,5.32-2.07c1.12-0.52,2.12-1.18,3.3-0.24c1.16,0.92,1.86,2.76,1.2,4.09
		c-0.62,1.25-1.48,2.49-2.53,3.4c-2.58,2.23-5.64,3.6-9.03,4.15c-0.65,0.1-1.29,0.21-1.94,0.31L91.87,622.5z M89.65,599.19
		c0.44-0.02,1.16,0,1.87-0.1c1.82-0.25,2.62-1.45,2.19-3.19c-0.41-1.67-1.7-2.9-3.23-3.1c-1.68-0.22-3.28,0.62-4.08,2.27
		c-1.49,3.08-0.06,4.28,2.27,4.07C88.9,599.12,89.14,599.16,89.65,599.19z"/>
	<path class="st6" d="M805.62,622.55c-1.56,0.01-3.13,0.01-4.69,0.02c-1.02-0.19-2.05-0.33-3.06-0.57
		c-10.99-2.65-17.43-13.71-12.36-24.98c2.35-5.23,6.75-8.24,12.13-9.69c6.91-1.86,13.46-1.18,19.17,3.61
		c1.97,1.65,2.85,3.75,2.8,6.32c-0.07,4.45-4.35,7.85-9.4,6.07c-1.2-0.42-1.93-1.38-2.38-2.54c-0.38-0.96-0.68-1.97-1.12-2.9
		c-1.39-2.94-4.52-3.29-6.52-0.73c-1.57,2.01-1.56,4.33-1.01,6.63c1.27,5.31,6.51,8.39,11.81,7.01c0.92-0.24,1.8-0.65,2.71-0.95
		c2.61-0.85,4.39,0.45,4.51,3.21c0.07,1.64-0.61,2.94-1.63,4.12c-2.35,2.7-5.46,4.06-8.85,4.9
		C807.02,622.25,806.32,622.4,805.62,622.55z"/>
	<path class="st8" d="M521.07,586.42c5.03-0.06,9.41,1.3,13.14,4.6c2.26,1.99,3.01,4.46,2.6,7.32c-0.63,4.38-6.09,6.99-9.85,4.62
		c-0.87-0.55-1.45-1.64-1.98-2.58c-0.5-0.89-0.66-1.98-1.15-2.88c-1.33-2.46-4.05-2.78-5.99-0.77c-0.98,1.01-1.56,2.23-1.63,3.64
		c-0.19,3.89,1.26,7.04,4.44,9.29c2.81,1.99,5.88,1.66,8.96,0.71c0.68-0.21,1.33-0.59,2.02-0.72c2.02-0.4,3.45,0.63,3.78,2.66
		c0.31,1.88-0.34,3.45-1.56,4.84c-2.13,2.43-4.88,3.82-7.94,4.66c-4.62,1.27-9.26,1.1-13.62-0.76c-6.61-2.8-10.72-7.76-11.17-15.13
		c-0.41-6.82,2.19-12.31,8.05-16.07C512.84,587.49,516.86,586.37,521.07,586.42z"/>
	<path class="st5" d="M451.9,622.52c-1.91,0.01-3.83,0.02-5.74,0.04c-0.13-0.08-0.28-0.12-0.43-0.12c-0.97-0.11-1.93-0.21-2.9-0.32
		c-1.48-0.28-3.04-0.36-4.43-0.9c-3.16-1.23-3.64-4.29-0.96-6.33c1.85-1.41,2.54-3.14,2.57-5.35c0.04-3.27,0.17-6.55,0.32-9.82
		c0.08-1.69-0.41-2.95-2.07-3.65c-0.5-0.21-0.96-0.59-1.34-0.99c-1.08-1.13-1.17-2.49-0.13-3.66c0.57-0.64,1.29-1.23,2.06-1.59
		c4.38-2.03,8.98-3.3,13.84-3.4c2.44-0.05,2.61,0.19,3.09,2.64c0.16,0.81,0.49,1.58,0.72,2.3c1.48,0.06,1.88-0.93,2.46-1.64
		c1.3-1.58,2.83-2.82,4.9-3.2c5.98-1.12,10.56,3.86,9.02,9.77c-1.14,4.37-5.34,7.05-9.73,6.07c-0.97-0.22-1.88-0.83-2.75-1.36
		c-0.6-0.37-1.08-0.95-1.65-1.38c-1.64-1.27-2.5-0.93-2.87,1.16c-0.1,0.54-0.1,1.11-0.08,1.67c0.09,2.87,0.23,5.74,0.3,8.62
		c0.04,1.55,0.68,2.58,2.21,3.01c0.38,0.11,0.76,0.25,1.12,0.41c1.33,0.58,2.32,1.5,2.44,3c0.13,1.57-0.66,2.81-1.99,3.56
		c-0.81,0.46-1.77,0.69-2.7,0.89c-0.77,0.17-1.59,0.16-2.38,0.22c-0.84,0.1-1.69,0.21-2.53,0.31c0,0-0.19-0.03-0.19-0.03
		L451.9,622.52z"/>
	<path class="st9" d="M852.8,594.21c-0.01,0.82-0.02,1.63-0.03,2.45c-1.45,2.33-3.36,2.86-5.56,1.37c-1.38-0.93-2.62-2.07-3.94-3.09
		c-0.56-0.43-1.14-0.88-1.78-1.17c-1.1-0.5-2.28-0.09-2.92,0.9c-0.58,0.9-0.47,1.96,0.56,2.72c1.34,0.98,2.84,1.74,4.24,2.63
		c2.14,1.35,4.34,2.64,6.38,4.13c1.86,1.36,3.03,3.24,3.1,5.65c-0.02,1.25-0.05,2.49-0.07,3.74c-0.13,2.5-1.56,4.24-3.35,5.76
		c-2.11,1.79-4.64,2.65-7.28,3.24c-1.27,0-2.54-0.01-3.81-0.01c-2.99-0.48-5.98-0.97-9.03-0.69c-2.01,0.18-3.7-0.49-4.65-2.28
		c-0.99-1.89-1.83-3.88-2.53-5.9c-0.3-0.85-0.23-1.92-0.05-2.84c0.33-1.8,2.02-2.59,3.64-1.76c0.69,0.35,1.32,0.89,1.89,1.43
		c1.22,1.15,2.37,2.37,3.57,3.54c0.95,0.92,2.06,1.5,3.44,1.35c0.98-0.1,1.61-0.63,1.97-1.52c0.36-0.9-0.11-1.56-0.72-2.1
		c-0.47-0.42-1.03-0.75-1.57-1.08c-1.43-0.87-2.89-1.69-4.31-2.58c-0.88-0.55-1.71-1.17-2.54-1.8c-7.08-5.35-4.37-16.05,2.77-18.81
		c2.94-1.14,5.92-1.29,8.94-0.79c2.22,0.37,4.36,0.73,6.58-0.12c1.28-0.49,2.53-0.02,3.48,0.99
		C851.01,589.47,852.44,591.55,852.8,594.21z"/>
	<path class="st8" d="M145.53,586.28c1.19,0.11,2.4,0.15,3.58,0.34c0.78,0.12,1.58,0.34,2.27,0.7c2.04,1.05,2.09,3.15,0.15,4.32
		c-0.27,0.16-0.57,0.29-0.88,0.38c-2.26,0.62-3.57,2.21-4.59,4.23c-3.09,6.13-6.24,12.24-9.42,18.32c-0.96,1.84-2.09,3.59-3.17,5.36
		c-0.33,0.54-0.72,1.07-1.19,1.49c-1.84,1.64-4.18,1.52-5.66-0.44c-1.44-1.91-2.84-3.88-3.99-5.97c-3.14-5.74-6.16-11.56-9.19-17.36
		c-1.1-2.11-2.35-3.96-4.85-4.62c-1.18-0.31-1.82-1.22-1.82-2.52c0-1.29,0.67-2.1,1.8-2.56c0.81-0.33,1.63-0.7,2.49-0.84
		c5.71-0.95,11.44-1.16,17.15-0.08c0.92,0.17,1.86,0.51,2.68,0.97c1.51,0.85,1.75,2.18,0.8,3.66c-0.09,0.13-0.19,0.26-0.29,0.38
		c-2.14,2.73-2.19,3.2-0.46,6.09c0.49,0.82,1.01,1.64,1.65,2.35c0.99,1.1,2.02,1.13,2.77-0.06c1.1-1.75,2.06-3.61,2.85-5.51
		c0.24-0.58-0.17-1.52-0.47-2.21c-0.28-0.64-0.88-1.14-1.23-1.76c-0.76-1.37-0.5-2.46,0.82-3.28c0.53-0.33,1.15-0.59,1.77-0.68
		c2.13-0.32,4.27-0.55,6.41-0.81C145.51,586.19,145.52,586.24,145.53,586.28z"/>
	<path class="st6" d="M773.46,622.55c-2.52,0-5.03-0.01-7.55-0.01c-1.49-0.27-2.99-0.5-4.47-0.82c-0.69-0.15-1.41-0.36-2.01-0.71
		c-1.91-1.13-2.39-3.46-0.7-4.84c2.9-2.36,3.44-5.4,3.35-8.79c-0.07-2.56-0.19-5.11-0.21-7.67c-0.02-1.61-0.66-2.74-2.09-3.48
		c-0.49-0.25-0.97-0.57-1.35-0.97c-1.16-1.19-1.13-2.89,0.11-4.04c0.52-0.48,1.15-0.88,1.81-1.14c4.4-1.74,8.94-2.92,13.63-3.55
		c0.32-0.04,0.64-0.07,0.96-0.08c2.47-0.07,2.9,0.33,2.91,2.89c0.02,5.84,0,11.67,0.01,17.51c0,1.12,0.05,2.24,0.08,3.36
		c0.06,2.09,0.76,3.77,2.5,5.16c2.4,1.92,2.01,4.2-0.72,5.69C777.76,622.12,775.57,622.18,773.46,622.55z"/>
	<path class="st0" d="M168.24,622.56c-2.08-0.01-4.16-0.01-6.24-0.02c-1.73-0.31-3.46-0.57-5.17-0.94
		c-0.69-0.15-1.39-0.42-1.97-0.81c-1.78-1.22-2.04-3.63-0.32-4.88c2.57-1.88,3.23-4.38,3.13-7.33c-0.1-2.79-0.14-5.59-0.12-8.38
		c0.01-1.84-0.54-3.23-2.28-4.11c-0.67-0.34-1.31-0.97-1.68-1.62c-0.59-1.05-0.48-2.24,0.43-3.08c0.68-0.63,1.53-1.16,2.39-1.5
		c3.94-1.56,8.04-2.57,12.21-3.28c0.47-0.08,0.95-0.11,1.43-0.14c3.02-0.2,3.44,0.19,3.45,3.3c0.01,5.83,0,11.65,0.01,17.48
		c0,1.28,0.04,2.55,0.14,3.83c0.12,1.57,0.8,2.84,2.03,3.91c3.03,2.63,2.61,4.9-1.13,6.34c-0.96,0.37-1.99,0.56-2.98,0.83
		c-0.81,0.1-1.63,0.19-2.44,0.29C168.85,622.48,168.54,622.52,168.24,622.56z"/>
	<path class="st0" d="M489.84,622.56c-2.08-0.01-4.16-0.02-6.23-0.03c-0.14-0.07-0.28-0.1-0.44-0.1c-0.65-0.1-1.31-0.19-1.96-0.29
		c-1.25-0.27-2.52-0.45-3.73-0.83c-2.69-0.82-3.34-4.32-0.94-5.81c2-1.24,2.72-3.3,2.72-5.57c0-3.44-0.08-6.88-0.12-10.31
		c-0.02-1.48-0.6-2.61-1.94-3.34c-0.49-0.26-0.98-0.57-1.37-0.95c-1.3-1.25-1.3-3,0.04-4.21c0.52-0.47,1.16-0.89,1.81-1.14
		c4.42-1.68,8.94-2.98,13.65-3.49c3.37-0.36,3.77,0.05,3.78,3.41c0.01,5.76-0.01,11.52,0.01,17.28c0,1.28,0.07,2.56,0.15,3.83
		c0.1,1.59,0.77,2.85,2,3.93c3.04,2.66,2.63,4.91-1.1,6.36c-0.96,0.37-1.99,0.56-2.99,0.83c-0.81,0.1-1.63,0.19-2.44,0.29
		C490.45,622.48,490.14,622.52,489.84,622.56z"/>
	<path class="st10" d="M765.05,584.66c-1.1-0.13-2.23-0.15-3.3-0.41c-1.86-0.45-3.09-1.66-3.45-3.56c-0.33-1.76,0.49-3.2,1.9-4.1
		c4.18-2.67,8.75-3.77,13.67-2.72c1.78,0.38,3.33,1.23,3.65,3.29c0.33,2.16-0.7,3.7-2.43,4.81c-2.69,1.72-5.69,2.42-8.84,2.58
		c-0.4,0.02-0.8,0-1.2,0C765.05,584.58,765.05,584.62,765.05,584.66z"/>
	<path class="st3" d="M482.34,584.64c-1.18-0.15-2.39-0.19-3.53-0.49c-1.76-0.46-2.89-1.69-3.24-3.48c-0.33-1.66,0.42-3,1.69-3.97
		c2.33-1.79,5.08-2.64,7.94-3.06c1.48-0.22,3.02-0.11,4.53-0.1c0.47,0,0.95,0.1,1.41,0.24c1.85,0.55,3.45,1.46,3.73,3.58
		c0.27,2.05-0.84,3.48-2.47,4.56C489.35,583.94,485.91,584.42,482.34,584.64z"/>
	<path class="st3" d="M160.2,584.68c-0.97-0.25-2.5-0.43-3.84-1.03c-2.77-1.22-3.28-4.3-1.19-6.51c0.38-0.4,0.82-0.78,1.3-1.04
		c3.73-2.03,7.68-3.05,11.95-2.53c0.78,0.1,1.58,0.3,2.29,0.62c3.04,1.37,3.55,4.74,1.01,7.01c-1.89,1.69-4.23,2.51-6.7,2.94
		C163.61,584.38,162.17,584.46,160.2,584.68z"/>
	<path class="st2" d="M442.83,622.12c0.97,0.11,1.93,0.21,2.9,0.32C444.76,622.33,443.8,622.22,442.83,622.12z"/>
	<path class="st2" d="M169.15,622.43c0.81-0.1,1.63-0.19,2.44-0.29C170.77,622.24,169.96,622.34,169.15,622.43z"/>
	<path class="st1" d="M452.28,622.48c0.84-0.1,1.69-0.21,2.53-0.31C453.96,622.27,453.12,622.37,452.28,622.48z"/>
	<path class="st2" d="M490.75,622.43c0.81-0.1,1.63-0.19,2.44-0.29C492.37,622.24,491.56,622.34,490.75,622.43z"/>
	<path class="st2" d="M91.88,622.44c0.65-0.1,1.29-0.21,1.94-0.31C93.17,622.23,92.53,622.34,91.88,622.44z"/>
	<path class="st2" d="M275.73,622.45c0.65-0.1,1.3-0.2,1.95-0.3C277.02,622.25,276.37,622.35,275.73,622.45z"/>
	<path class="st2" d="M481.21,622.15c0.65,0.1,1.31,0.19,1.96,0.29C482.52,622.34,481.86,622.24,481.21,622.15z"/>
	<path class="st2" d="M268.09,622.14c0.49,0.1,0.98,0.2,1.47,0.3C269.07,622.34,268.58,622.24,268.09,622.14z"/>
	<path class="st2" d="M402.03,622.11c0.33,0.1,0.66,0.2,0.99,0.31C402.69,622.32,402.36,622.22,402.03,622.11z"/>
	<path class="st1" d="M407.73,622.53c0.33-0.12,0.66-0.23,1-0.35C408.4,622.3,408.07,622.41,407.73,622.53z"/>
	<path class="st11" d="M430.32,375.22c39.34-0.38,71.68,32.66,71.19,72.19c-0.46,37.35-31.11,70.57-71.71,70.35
		c-39.64-0.21-71.35-32.67-70.87-72.19C359.4,406.5,391.35,374.87,430.32,375.22z M430.68,423.76c-7.97,0.24-14.75,3.23-20.12,9.14
		c-4.89,5.38-7.13,11.79-6.04,19c2.93,19.33,22.61,24.7,34.01,20.67c2.4-0.85,4.77-1.81,7.21-2.57c3.86-1.21,7.14-6.27,6.56-10.29
		c-0.32-2.23-2.3-4.2-4.82-2.14c-2.5,2.05-5.34,3.14-8.51,3.5c-4.97,0.57-9.18-0.92-12.34-4.84c-3.84-4.77-4.94-10.33-3.9-16.25
		c0.65-3.68,3.28-6.27,7.39-6.15c4.4,0.13,7.8,2.06,10.21,5.72c0.79,1.2,1.43,2.5,2.19,3.71c1.17,1.87,2.91,2.71,5.08,2.55
		c2.92-0.22,5.04-2.12,5.72-4.98c1.13-4.71-0.16-8.82-3.08-12.55c-0.97-1.23-2.17-1.89-3.75-1.59c-2.3,0.44-4.4-0.11-6.5-1.04
		C437.06,424.33,433.97,423.59,430.68,423.76z"/>
	<path class="st11" d="M250.22,283.74c-0.43-37.35,30.55-71.15,71.32-71.12c38.09,0.03,71.22,30.52,71.2,71.29
		c-0.02,41.45-33.9,71.48-71.73,71.29C281.75,355.01,249.68,322.32,250.22,283.74z M338.67,306.65c1.84,0,3.68,0.07,5.52-0.02
		c1.27-0.06,2.56-0.22,3.78-0.55c2.17-0.6,3.08-2.55,2.37-4.72c-0.37-1.13-1.07-2.01-2.14-2.45c-2.69-1.1-4.61-3.12-6.45-5.24
		c-2.93-3.38-5.84-6.78-8.74-10.2c-1.65-1.95-3.35-3.87-4.86-5.93c-1.51-2.06-1.39-3.25,0.36-5.11c1.64-1.74,3.39-3.39,5.13-5.05
		c1.15-1.1,2.51-1.57,4.14-1.55c1.26,0.01,2.55-0.18,3.76-0.52c1.53-0.43,2.35-1.56,2.41-3.2c0.06-1.63-0.64-2.86-2.12-3.41
		c-1.32-0.49-2.76-0.88-4.16-0.94c-3.43-0.13-6.88-0.13-10.31,0c-1.49,0.06-3,0.43-4.42,0.9c-2.29,0.77-2.98,2.1-2.53,4.45
		c0.07,0.39,0.23,0.76,0.36,1.14c0.49,1.48,0.3,2.8-0.74,4.03c-1.34,1.59-2.6,3.24-3.93,4.84c-0.3,0.36-0.66,0.72-1.06,0.93
		c-0.97,0.49-1.79,0.06-1.84-1.05c-0.16-3.13-0.21-6.17,2.39-8.67c1.97-1.9,1.35-4.58-1.17-5.67c-1.28-0.56-2.76-0.85-4.16-0.91
		c-3.19-0.13-6.4-0.16-9.59,0.02c-2.05,0.12-4.09,0.61-6.11,1.07c-1.53,0.35-2.51,1.4-2.7,3.01c-0.18,1.54,0.25,2.92,1.64,3.71
		c2.05,1.17,2.77,3.01,2.86,5.19c0.2,5.43,0.44,10.86,0.5,16.29c0.03,2.71-0.24,5.42-0.5,8.12c-0.21,2.21-1.05,4.07-3,5.47
		c-1.89,1.36-1.75,3.9,0.1,5.32c0.48,0.37,1.12,0.63,1.72,0.75c5.86,1.22,11.75,1.21,17.63,0.27c1.23-0.2,2.48-0.69,3.57-1.31
		c1.96-1.12,2.23-3.16,0.78-4.87c-0.36-0.42-0.78-0.81-1.23-1.13c-2-1.42-2.52-3.41-2.22-5.7c0.16-1.19,0.27-2.53,1.6-2.97
		c1.19-0.39,1.83,0.71,2.57,1.41c0.17,0.16,0.35,0.33,0.5,0.52c3.1,3.66,6.25,7.26,9.26,10.99c1.47,1.82,3.12,2.87,5.52,2.75
		C334.99,306.57,336.83,306.64,338.67,306.65z"/>
	<path class="st11" d="M458.54,283.88c-0.51-37.42,30.53-71.35,71.42-71.26c37.96,0.08,71.16,30.48,71.1,71.39
		c-0.07,41.47-34.02,71.43-71.83,71.19C490.03,354.95,458.08,322.32,458.54,283.88z M543.25,281.02c-2.46,0.26-4.94,0.38-7.36,0.84
		c-1.62,0.3-3.22,0.95-4.71,1.68c-1.39,0.69-2.04,2-1.83,3.6c0.23,1.75,1.08,2.63,2.92,3.04c0.54,0.12,1.11,0.11,1.66,0.16
		c1.69,0.14,2.4,0.86,2.52,2.56c0.16,2.32-1.48,4.21-3.86,4.28c-3,0.09-5.51-1.17-7.38-3.39c-5.4-6.39-6.6-13.68-4.09-21.57
		c0.87-2.75,2.94-4.53,5.73-5.35c3.8-1.11,7.11-0.03,10,2.47c1.26,1.1,2.27,2.48,3.51,3.61c0.93,0.85,1.95,1.7,3.09,2.19
		c3.21,1.36,6.6-0.42,7.44-3.82c1.06-4.24-0.24-7.87-3.01-11.08c-1.46-1.7-3.25-2.25-5.38-1.43c-1.65,0.64-3.27,0.62-4.91,0
		c-4.71-1.77-9.55-1.75-14.41-0.92c-13.4,2.3-22.96,14.58-20.85,27.88c0.87,5.47,2.97,10.32,7.09,14.06
		c8.19,7.42,17.72,9.56,28.28,6.38c6.38-1.92,11.16-5.84,13.3-12.4c0.63-1.93,1.38-3.31,3.62-3.95c2.6-0.74,3.1-3.5,1.39-5.61
		c-0.85-1.05-1.98-1.61-3.23-1.94C549.66,281.48,546.49,281.09,543.25,281.02z"/>
	<path class="st12" d="M430.68,423.76c3.28-0.17,6.38,0.57,9.33,1.88c2.1,0.93,4.2,1.48,6.5,1.04c1.58-0.3,2.78,0.36,3.75,1.59
		c2.92,3.72,4.21,7.83,3.08,12.55c-0.69,2.86-2.8,4.76-5.72,4.98c-2.16,0.17-3.91-0.68-5.08-2.55c-0.76-1.22-1.4-2.52-2.19-3.71
		c-2.41-3.66-5.81-5.59-10.21-5.72c-4.11-0.12-6.74,2.47-7.39,6.15c-1.04,5.91,0.06,11.47,3.9,16.25c3.16,3.93,7.37,5.41,12.34,4.84
		c3.17-0.36,6.01-1.45,8.51-3.5c2.52-2.06,4.49-0.09,4.82,2.14c0.58,4.02-2.7,9.08-6.56,10.29c-2.43,0.76-4.8,1.72-7.21,2.57
		c-11.4,4.03-31.09-1.34-34.01-20.67c-1.09-7.21,1.15-13.62,6.04-19C415.94,426.99,422.71,424,430.68,423.76z"/>
	<path class="st13" d="M338.67,306.64c-1.84,0-3.68-0.08-5.52,0.02c-2.39,0.12-4.05-0.93-5.52-2.75c-3.01-3.73-6.16-7.34-9.26-10.99
		c-0.15-0.18-0.33-0.35-0.5-0.52c-0.74-0.7-1.39-1.8-2.57-1.41c-1.33,0.44-1.45,1.79-1.6,2.97c-0.3,2.3,0.22,4.28,2.22,5.7
		c0.45,0.32,0.87,0.71,1.23,1.13c1.45,1.71,1.18,3.75-0.78,4.87c-1.09,0.62-2.34,1.12-3.57,1.31c-5.88,0.93-11.77,0.94-17.63-0.27
		c-0.6-0.13-1.24-0.38-1.72-0.75c-1.86-1.43-2-3.96-0.1-5.32c1.94-1.4,2.78-3.26,3-5.47c0.26-2.7,0.53-5.42,0.5-8.12
		c-0.06-5.43-0.3-10.86-0.5-16.29c-0.08-2.19-0.8-4.03-2.86-5.19c-1.4-0.79-1.83-2.17-1.64-3.71c0.19-1.61,1.17-2.66,2.7-3.01
		c2.01-0.46,4.06-0.96,6.11-1.07c3.19-0.18,6.4-0.15,9.59-0.02c1.4,0.06,2.88,0.35,4.16,0.91c2.52,1.09,3.14,3.77,1.17,5.67
		c-2.6,2.5-2.54,5.54-2.39,8.67c0.06,1.11,0.87,1.55,1.84,1.05c0.41-0.21,0.77-0.57,1.06-0.93c1.32-1.6,2.58-3.26,3.93-4.84
		c1.04-1.23,1.22-2.55,0.74-4.03c-0.12-0.38-0.28-0.75-0.36-1.14c-0.44-2.35,0.24-3.68,2.53-4.45c1.42-0.48,2.94-0.85,4.42-0.9
		c3.43-0.13,6.88-0.13,10.31,0c1.4,0.05,2.84,0.45,4.16,0.94c1.48,0.55,2.18,1.78,2.12,3.41c-0.06,1.64-0.88,2.77-2.41,3.2
		c-1.21,0.34-2.51,0.53-3.76,0.52c-1.63-0.02-2.99,0.46-4.14,1.55c-1.73,1.66-3.48,3.3-5.13,5.05c-1.75,1.86-1.87,3.05-0.36,5.11
		c1.51,2.06,3.21,3.98,4.86,5.93c2.9,3.41,5.81,6.81,8.74,10.2c1.84,2.12,3.76,4.14,6.45,5.24c1.08,0.44,1.77,1.32,2.14,2.45
		c0.71,2.17-0.19,4.12-2.37,4.72c-1.22,0.33-2.51,0.49-3.78,0.55C342.35,306.71,340.51,306.65,338.67,306.64z"/>
	<path class="st12" d="M543.25,281.02c3.24,0.07,6.4,0.46,9.51,1.3c1.25,0.34,2.38,0.9,3.23,1.94c1.72,2.11,1.22,4.87-1.39,5.61
		c-2.24,0.63-2.98,2.01-3.62,3.95c-2.14,6.55-6.92,10.48-13.3,12.4c-10.56,3.18-20.09,1.04-28.28-6.38
		c-4.12-3.74-6.22-8.59-7.09-14.06c-2.11-13.3,7.45-25.58,20.85-27.88c4.86-0.83,9.7-0.85,14.41,0.92c1.64,0.62,3.26,0.64,4.91,0
		c2.12-0.83,3.92-0.27,5.38,1.43c2.77,3.21,4.06,6.84,3.01,11.08c-0.84,3.39-4.23,5.18-7.44,3.82c-1.14-0.48-2.16-1.34-3.09-2.19
		c-1.24-1.13-2.25-2.51-3.51-3.61c-2.88-2.51-6.2-3.59-10-2.47c-2.79,0.82-4.86,2.6-5.73,5.35c-2.51,7.89-1.31,15.18,4.09,21.57
		c1.87,2.22,4.39,3.48,7.38,3.39c2.38-0.07,4.02-1.96,3.86-4.28c-0.12-1.69-0.83-2.41-2.52-2.56c-0.56-0.05-1.12-0.04-1.66-0.16
		c-1.84-0.41-2.69-1.29-2.92-3.04c-0.21-1.6,0.44-2.92,1.83-3.6c1.49-0.73,3.09-1.38,4.71-1.68
		C538.31,281.4,540.8,281.28,543.25,281.02z"/>
</g>
</svg>
