<?xml version="1.0" encoding="utf-8"?>
<!-- Generator: Adobe Illustrator 23.0.5, SVG Export Plug-In . SVG Version: 6.00 Build 0)  -->
<svg version="1.1" id="Layer_1" xmlns="http://www.w3.org/2000/svg" xmlns:xlink="http://www.w3.org/1999/xlink" x="0px" y="0px"
	 viewBox="0 0 1272.67 1021.85" style="enable-background:new 0 0 1272.67 1021.85;" xml:space="preserve">
<style type="text/css">
	.st0{fill:#C49A6C;}
	.st1{fill:#E94E2B;}
	.st2{fill:#FFFFFF;}
</style>
<g>
	<g>
		<polygon class="st0" points="1069.83,895.63 883.59,902.87 883.59,47.51 1069.83,234.51 		"/>
		<polygon class="st1" points="1064.72,880.53 891.99,883.11 891.99,66.75 1064.72,237.88 		"/>
	</g>
	<polygon class="st2" points="1064.41,358.67 890.95,219.66 890.95,143.72 1064.41,298.93 	"/>
	<polygon class="st2" points="1064.93,812.2 892.61,796.34 892.61,722.27 1064.93,753.86 	"/>
	<path class="st2" d="M1054.48,544.43c0,91-27.51,157.92-64.83,148.62c-41.68-10.39-79.21-109.87-79.21-221.06
		s37.53-172.92,79.21-141.38C1026.97,358.85,1054.48,453.43,1054.48,544.43z"/>
	<g>
		<g>
			<path d="M966.47,395.06l-14.76-9.53v24.42l16.41,10.06v7.18l-21.45-12.94v-68.19l20.62,14.3v7.18l-15.59-10.66v21.4l14.76,9.67
				V395.06z"/>
			<path d="M982.46,435.84v-27.57l-11.44-45.33l5.36,3.72l5.07,21.47c1.38,5.83,2.43,10.47,3.53,15.71l0.1,0.07
				c1-3.57,2.2-7,3.55-10.97l5-14.3l5.04,3.49l-11.6,29.02v27.49L982.46,435.84z"/>
			<path d="M1019.23,429.12l-12.7-8.2v22.64l14.13,8.66v6.66l-18.45-11.13v-63.19l17.74,12.3v6.67l-13.42-9.17v19.84l12.7,8.32
				V429.12z"/>
			<path d="M933.74,461.39c2.52,0.62,5.8,1.76,9.93,3.96c5.01,2.68,8.65,6.62,10.93,11.44c2.1,4.3,3.35,9.83,3.35,15.81
				c0,6.08-1.02,10.36-2.95,12.91c-2.63,3.64-6.96,4.08-11.92,1.7c-1.53-0.73-2.95-1.51-4.14-2.59v27.59l-5.21-2.31V461.39z
				 M938.94,497.38c1.13,1.06,2.55,1.96,4.25,2.79c6.12,2.98,9.8-0.34,9.8-9.67c0-8.93-3.63-15.14-9.22-18.08
				c-2.24-1.17-3.95-1.77-4.84-1.82V497.38z"/>
			<path d="M985.39,540.13c0,4.8,0.05,9.05,0.21,12.76l-4.11-1.82l-0.27-7.75l-0.11-0.05c-1.22,3.22-3.95,6.95-8.59,4.9
				c-4.15-1.83-9.19-8.21-9.19-25.03v-28l4.87,2.47v26.34c0,9.04,1.54,15.83,5.89,17.79c3.18,1.43,5.37-1.54,6.22-4.93
				c0.27-1.13,0.43-2.61,0.43-4.15v-28.69l4.64,2.36V540.13z"/>
			<path d="M992.96,525.19c0-5.89-0.1-10.69-0.2-15.11l4.03,2.05l0.2,7.94l0.1,0.05c1.82-4.65,4.69-6.49,8.62-4.49
				c5.74,2.92,10,14.19,10,27.71c0,16-5.14,21.64-10.75,19.16c-3.19-1.41-6-5.29-7.47-10.47l-0.1-0.05v24.82l-4.44-1.85V525.19z
				 M997.4,539.53c0,1.23,0.1,2.41,0.2,3.49c0.81,6.13,3.48,11.29,6.62,12.7c4.59,2.07,7.23-3.77,7.23-14.04
				c0-8.97-2.49-17.9-7.08-20.19c-2.99-1.5-5.81,1.15-6.67,6.95c-0.15,0.96-0.3,2.12-0.3,3.25V539.53z"/>
			<path d="M1025.63,514.44c0.05,2.74-0.98,4.38-2.63,3.53c-1.46-0.76-2.5-3.49-2.5-6.23c0-2.83,1.09-4.44,2.6-3.64
				C1024.65,508.94,1025.63,511.63,1025.63,514.44z M1021.02,568.58v-44.16l4.14,2.1v43.89L1021.02,568.58z"/>
			<path d="M1031.92,509.67l4.01,2.16v63.36l-4.01-1.78V509.67z"/>
			<path d="M965.46,603.16l-11.53-4.18v-7.42l27.46,10.23v7.14l-11.09-4.02v58.81l-4.84-1.37V603.16z"/>
			<path d="M995.07,670.73l-11.41-68.08l4.92,1.83l5.41,33.51c1.48,9.1,2.75,17.25,3.67,24.98l0.1,0.03
				c0.96-7.07,2.37-14.63,3.88-22.41l5.66-29.13l4.55,1.7l-11.92,58.95L995.07,670.73z"/>
		</g>
	</g>
</g>
<g>
	<g>
		<polygon class="st0" points="883.59,902.87 149.17,890.29 149.17,372.61 883.59,47.51 		"/>
		<polygon class="st1" points="862.17,880.94 158.06,877.13 158.06,378 862.17,72.09 		"/>
		<polygon class="st2" points="862.17,225.24 158.06,472.5 158.06,424.58 862.17,147.59 		"/>
		<polygon class="st2" points="862.17,719.17 158.06,777.3 158.06,827.88 862.17,801.13 		"/>
		<polygon class="st2" points="158.06,794.61 187.47,789.65 217.45,430.63 158.06,452.53 		"/>
		<g>
			<g>
				<path class="st2" d="M237.63,492.8l-11.9,3.71v14.61l13.28-3.97v4.44l-17.18,5.08v-40.39l16.49-5.43v4.43l-12.59,4.1v12.81
					l11.9-3.75V492.8z"/>
				<path class="st2" d="M251.36,507.93v-17.56l-9.91-20.56l4.59-1.51l4.43,9.95c1.22,2.74,2.16,4.96,3.15,7.54l0.09-0.03
					c0.9-2.99,1.98-6.04,3.21-9.58l4.61-12.99l4.74-1.56l-10.77,27.39v17.68L251.36,507.93z"/>
				<path class="st2" d="M286.74,477.51l-12.88,4.01v15.2l14.37-4.3v4.62l-18.58,5.49v-42l17.84-5.88v4.61l-13.62,4.44v13.32
					l12.88-4.06V477.51z"/>
			</g>
		</g>
		<polygon class="st2" points="354.6,512.79 204.69,553.12 204.69,532.34 354.6,489.36 		"/>
		<g>
			<g>
				<path class="st2" d="M221.13,570.22c2.03-0.89,4.71-1.9,8.13-2.76c4.23-1.06,7.34-0.74,9.33,0.76c1.84,1.32,2.94,3.78,2.94,7.11
					c0,3.4-0.9,6.28-2.59,8.63c-2.28,3.26-5.99,5.51-10.17,6.48c-1.27,0.3-2.44,0.51-3.42,0.47v14.83l-4.22,0.93V570.22z
					 M225.35,587.01c0.93,0.06,2.1-0.11,3.51-0.44c5.16-1.22,8.33-4.79,8.33-9.95c0-4.94-3.12-6.55-7.84-5.37
					c-1.86,0.46-3.27,0.98-4,1.38V587.01z"/>
				<path class="st2" d="M267.25,588.99c0,2.84,0.05,5.33,0.21,7.46l-4.05,0.89l-0.26-4.42l-0.1,0.02
					c-1.19,2.47-3.82,5.94-8.23,6.91c-3.87,0.85-8.47-0.48-8.47-9.98v-15.81l4.45-1.08v15.03c0,5.16,1.42,8.32,5.51,7.41
					c3.03-0.68,5.14-3.47,5.97-5.86c0.26-0.8,0.41-1.74,0.41-2.64V570.1l4.57-1.11V588.99z"/>
				<path class="st2" d="M274.9,576.16c0-3.55-0.11-6.38-0.21-8.98l4.18-1.02l0.21,4.71l0.11-0.03c1.92-3.85,4.96-6.6,9.21-7.63
					c6.34-1.54,11.15,3.06,11.15,11.63c0,10.15-5.79,16.44-11.96,17.79c-3.44,0.76-6.43-0.19-7.97-2.61l-0.11,0.02v15.09l-4.61,0.98
					V576.16z M279.51,582.48c0,0.75,0.11,1.41,0.21,2.02c0.85,3.31,3.68,5.09,7.06,4.34c5.02-1.12,7.95-6.19,7.95-12.64
					c0-5.63-2.77-9.79-7.79-8.59c-3.22,0.77-6.21,3.96-7.11,7.97c-0.16,0.67-0.32,1.45-0.32,2.14V582.48z"/>
				<path class="st2" d="M311.11,550.34c0.06,1.75-1.17,3.47-3.12,3.95c-1.72,0.42-2.94-0.68-2.94-2.44c0-1.82,1.27-3.54,3.05-3.99
					C309.94,547.39,311.11,548.51,311.11,550.34z M305.66,588.02v-28.36l4.89-1.19v28.47L305.66,588.02z"/>
				<path class="st2" d="M318.76,543.11l4.99-1.26v42.19l-4.99,1.1V543.11z"/>
			</g>
		</g>
		<polygon class="st2" points="392.66,637.47 181.84,673.42 181.84,640.81 392.66,598.92 		"/>
		<g>
			<g>
				<path class="st2" d="M228.88,700.23l-13.44,1.9v-4.79l33.24-4.84v4.93l-13.94,1.98v39.49l-5.86,0.64V700.23z"/>
				<path class="st2" d="M266.96,735.37l-15.32-43.31l6.5-0.95l7.34,21.33c2.04,5.89,3.81,11.22,5.09,16.43l0.14-0.02
					c1.35-5.45,3.34-11.46,5.49-17.71l8.21-23.86l6.78-0.99l-17.42,48.33L266.96,735.37z"/>
			</g>
		</g>
		<path class="st2" d="M434.33,556.71c0,95.52,74.09,165.54,176.94,155.23c118.16-11.83,227.67-122.44,227.67-245.35
			S729.42,281.86,611.27,322.66C508.42,358.17,434.33,461.19,434.33,556.71z"/>
		<path class="st1" d="M646.23,642.77c0,23.66-18.25,44.92-40.21,47.42c-21.36,2.44-38.27-13.88-38.27-36.39s16.9-43.58,38.27-47.15
			C627.98,602.99,646.23,619.11,646.23,642.77z"/>
	</g>
	<polygon class="st1" points="733.39,479.69 496.73,533.84 496.73,415.25 733.39,342.05 	"/>
	<polygon class="st1" points="629.9,520.69 567.75,534.24 567.75,517.59 629.9,503.37 	"/>
	<polygon class="st1" points="631.15,520.42 568.91,533.99 568.91,517.32 631.15,503.08 	"/>
	<polygon class="st1" points="632.4,520.14 570.06,533.74 570.06,517.06 632.4,502.8 	"/>
	<polygon class="st1" points="633.65,519.87 571.22,533.48 571.22,516.8 633.65,502.51 	"/>
	<polygon class="st1" points="634.91,519.6 572.38,533.23 572.38,516.53 634.91,502.22 	"/>
	<polygon class="st1" points="636.16,519.32 573.54,532.98 573.54,516.26 636.16,501.93 	"/>
	<polygon class="st1" points="637.42,519.05 574.7,532.73 574.7,516 637.42,501.65 	"/>
	<polygon class="st1" points="638.68,518.78 575.86,532.47 575.86,515.73 638.68,501.36 	"/>
	<polygon class="st1" points="639.94,518.5 577.03,532.22 577.03,515.47 639.94,501.07 	"/>
	<polygon class="st1" points="641.21,518.22 578.2,531.96 578.2,515.2 641.21,500.78 	"/>
	<polygon class="st1" points="642.47,517.95 579.37,531.71 579.37,514.93 642.47,500.49 	"/>
	<polygon class="st1" points="643.74,517.67 580.54,531.45 580.54,514.66 643.74,500.2 	"/>
	<polygon class="st1" points="645.01,517.4 581.71,531.2 581.71,514.39 645.01,499.91 	"/>
</g>
</svg>
