<?xml version="1.0" encoding="utf-8"?>
<!-- Generator: Adobe Illustrator 23.0.5, SVG Export Plug-In . SVG Version: 6.00 Build 0)  -->
<svg version="1.1" id="Layer_1" xmlns="http://www.w3.org/2000/svg" xmlns:xlink="http://www.w3.org/1999/xlink" x="0px" y="0px"
	 viewBox="0 0 576 720" style="enable-background:new 0 0 576 720;" xml:space="preserve">
<style type="text/css">
	.st0{stroke:#000000;stroke-miterlimit:10;}
	.st1{fill:#F48790;}
	.st2{font-family:'CooperBlack';}
	.st3{font-size:30px;}
	.st4{font-size:15px;}
	.st5{fill:#FFFFFF;}
	.st6{font-size:19px;}
	.st7{font-family:'Elephant-Regular';}
	.st8{font-size:12px;}
	.st9{font-size:9px;}
	.st10{font-size:7px;}
	.st11{font-size:13px;}
	.st12{font-size:8px;}
	.st13{font-size:10px;}
	.st14{font-size:16px;}
	.st15{font-size:14px;}
	.st16{font-size:11px;}
	.st17{font-size:6px;}
	.st18{fill:#BE1E2D;}
	.st19{font-family:'MyriadPro-Regular';}
	.st20{font-size:25px;}
</style>
<rect class="st0" width="576" height="720"/>
<text transform="matrix(1 0 0 1 111.3202 485.7205)"><tspan x="0" y="0" class="st1 st2 st3">MUSIC</tspan><tspan x="0" y="18" class="st1 st2 st4">THE TONE OF</tspan><tspan x="0" y="36" class="st1 st2 st4">OUR HEARTS</tspan></text>
<text transform="matrix(1 0 0 1 111.3201 459.0805)" class="st5 st2 st6">MUSICIAN</text>
<text transform="matrix(1 0 0 1 254.0403 309.3198)" class="st5 st7 st4">BASS</text>
<text transform="matrix(1 0 0 1 111.3202 541.1599)"><tspan x="0" y="0" class="st5 st7 st4">PIANO BAND</tspan><tspan x="0" y="18" class="st5 st7 st4">UKULELE </tspan></text>
<text transform="matrix(1 0 0 1 37.3201 459.0801)" class="st5 st7 st4">DRUMS</text>
<text transform="matrix(1 0 0 1 214.2801 423.8)" class="st5 st7 st4">FLUTE </text>
<text transform="matrix(1 0 0 1 148.7602 423.8004)" class="st5 st7 st4">BANJO</text>
<text transform="matrix(1 0 0 1 228.8401 407.52)"><tspan x="0" y="0" class="st5 st7 st4">BIWA</tspan><tspan x="0" y="18" class="st5 st7 st4"> </tspan></text>
<text transform="matrix(1 0 0 1 341.1603 340.5595)" class="st5 st7 st4">TUBA</text>
<text transform="matrix(1 0 0 1 233.1604 537.5597)" class="st5 st7 st8">JANZI</text>
<text transform="matrix(1 0 0 1 42.3602 497.9601)" class="st5 st7 st4">YODEL</text>
<text transform="matrix(1 0 0 1 325.3203 380.16)" class="st5 st7 st4">SING</text>
<text transform="matrix(1 0 0 1 180.6002 439.1998)" class="st5 st7 st4">OCARINA</text>
<text transform="matrix(1 0 0 1 76.2001 439.1997)" class="st5 st7 st4">STEELPAN</text>
<text transform="matrix(1 0 0 1 30.1201 478.5197)" class="st5 st7 st4">CYMBAL</text>
<text transform="matrix(1 0 0 1 79.92 423.7997)" class="st5 st7 st4">CAJON</text>
<text transform="matrix(1 0 0 1 62.5201 514.0799)" class="st5 st7 st9">BANGO</text>
<text transform="matrix(1 0 0 1 333.24 359.9999)" class="st5 st7 st4">BARI</text>
<text transform="matrix(1 0 0 1 89.1602 407.5201)" class="st5 st7 st9">CLAPSTICKS</text>
<text transform="matrix(1 0 0 1 62.5201 526.3199)" class="st5 st7 st9">GUITAR</text>
<text transform="matrix(1 0 0 1 223.8002 459.0806)" class="st5 st7 st4">TAP</text>
<text transform="matrix(1 0 0 1 238.2 360)" class="st5 st7 st4">OPRA</text>
<text transform="matrix(1 0 0 1 71.8801 545.7601)" class="st5 st7 st4">TAP</text>
<text transform="matrix(1 0 0 1 223.8002 474.1997)" class="st5 st7 st10">BANGO</text>
<text transform="matrix(1 0 0 1 347.6398 283.6803)" class="st5 st7 st4">LGIL</text>
<text transform="matrix(1 0 0 1 117.9599 394.5598)" class="st5 st7 st4">VIOLIN</text>
<text transform="matrix(1 0 0 1 288.0002 190.2)" class="st5 st7 st11">TRUMPET</text>
<text transform="matrix(1 0 0 1 292.2005 156.2401)" class="st5 st7 st12">SAXOPHONE</text>
<text transform="matrix(1 0 0 1 292.2005 143.9998)" class="st5 st7 st12">TUMPONG</text>
<text transform="matrix(1 0 0 1 260.6 279.3598)" class="st5 st7 st12">WHISTLE</text>
<text transform="matrix(0.9999 -0.0169 0.0169 0.9999 347.6402 254.5414)" class="st5 st7 st13">YOTAR</text>
<text transform="matrix(1 0 0 1 297.96 132.4798)" class="st5 st7 st14">XUN</text>
<text transform="matrix(1 0 0 1 165.4798 407.5196)" class="st5 st7 st10">XYLOPHONE</text>
<text transform="matrix(1 0 0 1 140.9998 376.5598)" class="st5 st7 st13">NOTE</text>
<text transform="matrix(1 0 0 1 268.491 248.4)" class="st5 st7 st15">HARP</text>
<text transform="matrix(1 0 0 1 268.491 267.16)" class="st1 st2 st8">BRING</text>
<text transform="matrix(1 0 0 1 257.6399 291.6398)" class="st1 st2 st13">FRIENDS</text>
<text transform="matrix(1 0 0 1 249.7202 326.2)" class="st1 st2 st15">MUSIC</text>
<text transform="matrix(1 0 0 1 245.4002 344.2001)" class="st1 st2 st14">FEST</text>
<text transform="matrix(1 0 0 1 351.2402 267.16)" class="st1 st2 st16">SWEET</text>
<text transform="matrix(1 0 0 1 351.2402 296.6798)" class="st1 st2 st16">SONGS</text>
<text transform="matrix(1 0 0 1 354.1202 309.3201)" class="st1 st2 st16">AND</text>
<text transform="matrix(1 0 0 1 341.16 322.5598)" class="st1 st2 st16">SOUNDS </text>
<text transform="matrix(1 0 0 1 233.1602 376.5598)" class="st5 st7 st8">CELLO</text>
<text transform="matrix(1 0 0 1 272.76 232.6001)" class="st5 st7 st8">BELL</text>
<text transform="matrix(1 0 0 1 233.1602 390.9998)" class="st5 st7 st8">CONGA</text>
<text transform="matrix(1 0 0 1 314.52 394.5602)" class="st5 st7 st12">CLARINET</text>
<text transform="matrix(1 0 0 1 123.7201 570.6801)" class="st5 st7 st12">HERMONICA</text>
<text transform="matrix(1 0 0 1 123.7201 581.0804)" class="st5 st7 st12">ACCORDAIN</text>
<text transform="matrix(1 0 0 1 321.7204 407.5195)" class="st5 st7 st10">RECORDER</text>
<text transform="matrix(1 0 0 1 272.7596 217.4801)" class="st5 st7 st12">MARACAS</text>
<text transform="matrix(1 0 0 1 223.7998 485.7203)" class="st5 st7 st17">SNARE DRUM</text>
<text transform="matrix(1 0 0 1 275.6402 205.9602)" class="st5 st7 st10">TRUMBONE</text>
<text transform="matrix(1 0 0 1 223.7998 497.9601)" class="st5 st7 st10">MICROPHONE</text>
<text transform="matrix(1 0 0 1 223.7998 520.6801)" class="st5 st7 st4">JUG</text>
<text transform="matrix(1 0 0 1 341.1603 237.7202)" class="st5 st7 st8">KAZOO</text>
<text transform="matrix(1 0 0 1 333.2397 224.0399)" class="st5 st7 st13">HELICAN</text>
<text transform="matrix(1 0 0 1 333.2397 211.0801)" class="st5 st7 st10">IRISH FLUTE</text>
<text transform="matrix(1 0 0 1 333.2397 201)" class="st5 st7 st10">SAXHORN</text>
<text transform="matrix(1 0 0 1 284.9999 170.0402)" class="st5 st7 st12">GLOCKENSPIEL</text>
<text transform="matrix(1 0 0 1 297.96 115.6401)" class="st5 st7 st10">HANDPAN</text>
<text transform="matrix(1 0 0 1 209.9602 557.7199)" class="st5 st7 st8">MBIRA</text>
<text transform="matrix(1 0 0 1 165.4798 656.0803)" class="st18 st19 st20">MUSICAL FESTIVAL</text>
<text transform="matrix(1 0 0 1 135.6401 688.4805)" class="st5 st19 st4">OCTOBER 12, 2021 - NOVEMBER 12, 2021</text>
</svg>
